<svg width="134" height="98" viewBox="0 0 134 98" fill="none" xmlns="http://www.w3.org/2000/svg">
<path d="M0 35.3281L16.5 0.078125H23.75L40.25 35.3281H31.05L28 28.1781H12.25L9.2 35.3281H0ZM20.05 9.67813L15.25 21.1281H24.95L20.15 9.67813H20.05Z" fill="black"/>
<path d="M38.1348 35.3281L54.6348 0.078125H61.8848L78.3848 35.3281H69.1848L66.1348 28.1781H50.3848L47.3348 35.3281H38.1348ZM58.1848 9.67813L53.3848 21.1281H63.0848L58.2848 9.67813H58.1848Z" fill="black"/>
<path d="M76.2695 35.3281L92.7695 0.078125H100.02L116.52 35.3281H107.32L104.27 28.1781H88.5195L85.4695 35.3281H76.2695ZM96.3195 9.67813L91.5195 21.1281H101.22L96.4195 9.67813H96.3195Z" fill="black"/>
<path d="M117.823 25.3781V18.4281H133.823V25.3781H117.823Z" fill="black"/>
<path d="M6.19185 58.3281V49.8681H7.17585V57.4641H11.4839V58.3281H6.19185ZM14.4115 58.4361C14.0115 58.4361 13.6515 58.3601 13.3315 58.2081C13.0195 58.0481 12.7715 57.8321 12.5875 57.5601C12.4035 57.2881 12.3115 56.9841 12.3115 56.6481C12.3115 56.2241 12.4195 55.8881 12.6355 55.6401C12.8595 55.3921 13.2235 55.2161 13.7275 55.1121C14.2395 55.0001 14.9355 54.9441 15.8155 54.9441H16.1995V54.5721C16.1995 54.0761 16.0955 53.7201 15.8875 53.5041C15.6875 53.2801 15.3635 53.1681 14.9155 53.1681C14.5635 53.1681 14.2235 53.2201 13.8955 53.3241C13.5675 53.4201 13.2315 53.5801 12.8875 53.8041L12.5515 53.0961C12.8555 52.8801 13.2235 52.7081 13.6555 52.5801C14.0955 52.4521 14.5155 52.3881 14.9155 52.3881C15.6675 52.3881 16.2235 52.5721 16.5835 52.9401C16.9515 53.3081 17.1355 53.8801 17.1355 54.6561V58.3281H16.2235V57.3201C16.0715 57.6641 15.8355 57.9361 15.5155 58.1361C15.2035 58.3361 14.8355 58.4361 14.4115 58.4361ZM14.5675 57.7041C15.0475 57.7041 15.4395 57.5401 15.7435 57.2121C16.0475 56.8761 16.1995 56.4521 16.1995 55.9401V55.5801H15.8275C15.1795 55.5801 14.6675 55.6121 14.2915 55.6761C13.9235 55.7321 13.6635 55.8361 13.5115 55.9881C13.3675 56.1321 13.2955 56.3321 13.2955 56.5881C13.2955 56.9161 13.4075 57.1841 13.6315 57.3921C13.8635 57.6001 14.1755 57.7041 14.5675 57.7041ZM22.0448 58.3281V52.4961H22.9928V53.4801C23.1688 53.1281 23.4128 52.8601 23.7248 52.6761C24.0368 52.4841 24.4008 52.3881 24.8168 52.3881C25.7288 52.3881 26.3128 52.7841 26.5688 53.5761C26.7448 53.2081 27.0048 52.9201 27.3488 52.7121C27.6928 52.4961 28.0888 52.3881 28.5368 52.3881C29.8328 52.3881 30.4808 53.1561 30.4808 54.6921V58.3281H29.5088V54.7401C29.5088 54.2041 29.4128 53.8121 29.2208 53.5641C29.0368 53.3081 28.7288 53.1801 28.2968 53.1801C27.8248 53.1801 27.4488 53.3481 27.1688 53.6841C26.8888 54.0201 26.7488 54.4681 26.7488 55.0281V58.3281H25.7768V54.7401C25.7768 54.2041 25.6808 53.8121 25.4888 53.5641C25.3048 53.3081 24.9968 53.1801 24.5648 53.1801C24.0848 53.1801 23.7048 53.3481 23.4248 53.6841C23.1528 54.0201 23.0168 54.4681 23.0168 55.0281V58.3281H22.0448ZM34.1341 58.4361C33.7341 58.4361 33.3741 58.3601 33.0541 58.2081C32.7421 58.0481 32.4941 57.8321 32.3101 57.5601C32.1261 57.2881 32.0341 56.9841 32.0341 56.6481C32.0341 56.2241 32.1421 55.8881 32.3581 55.6401C32.5821 55.3921 32.9461 55.2161 33.4501 55.1121C33.9621 55.0001 34.6581 54.9441 35.5381 54.9441H35.9221V54.5721C35.9221 54.0761 35.8181 53.7201 35.6101 53.5041C35.4101 53.2801 35.0861 53.1681 34.6381 53.1681C34.2861 53.1681 33.9461 53.2201 33.6181 53.3241C33.2901 53.4201 32.9541 53.5801 32.6101 53.8041L32.2741 53.0961C32.5781 52.8801 32.9461 52.7081 33.3781 52.5801C33.8181 52.4521 34.2381 52.3881 34.6381 52.3881C35.3901 52.3881 35.9461 52.5721 36.3061 52.9401C36.6741 53.3081 36.8581 53.8801 36.8581 54.6561V58.3281H35.9461V57.3201C35.7941 57.6641 35.5581 57.9361 35.2381 58.1361C34.9261 58.3361 34.5581 58.4361 34.1341 58.4361ZM34.2901 57.7041C34.7701 57.7041 35.1621 57.5401 35.4661 57.2121C35.7701 56.8761 35.9221 56.4521 35.9221 55.9401V55.5801H35.5501C34.9021 55.5801 34.3901 55.6121 34.0141 55.6761C33.6461 55.7321 33.3861 55.8361 33.2341 55.9881C33.0901 56.1321 33.0181 56.3321 33.0181 56.5881C33.0181 56.9161 33.1301 57.1841 33.3541 57.3921C33.5861 57.6001 33.8981 57.7041 34.2901 57.7041ZM34.3021 51.7161L35.5381 49.2921H36.5821L34.9981 51.7161H34.3021ZM40.6294 58.4361C40.1734 58.4361 39.7414 58.3721 39.3334 58.2441C38.9254 58.1161 38.5894 57.9361 38.3254 57.7041L38.6374 57.0201C38.9254 57.2521 39.2414 57.4241 39.5854 57.5361C39.9374 57.6401 40.2934 57.6921 40.6534 57.6921C41.1094 57.6921 41.4534 57.6081 41.6854 57.4401C41.9174 57.2721 42.0334 57.0441 42.0334 56.7561C42.0334 56.5321 41.9574 56.3561 41.8054 56.2281C41.6534 56.0921 41.4134 55.9881 41.0854 55.9161L39.9934 55.6761C39.0014 55.4601 38.5054 54.9481 38.5054 54.1401C38.5054 53.6121 38.7134 53.1881 39.1294 52.8681C39.5534 52.5481 40.1054 52.3881 40.7854 52.3881C41.1854 52.3881 41.5654 52.4521 41.9254 52.5801C42.2934 52.7001 42.5974 52.8801 42.8374 53.1201L42.5134 53.8041C42.2814 53.5881 42.0094 53.4241 41.6974 53.3121C41.3934 53.1921 41.0894 53.1321 40.7854 53.1321C40.3374 53.1321 39.9974 53.2201 39.7654 53.3961C39.5334 53.5721 39.4174 53.8041 39.4174 54.0921C39.4174 54.5401 39.7134 54.8281 40.3054 54.9561L41.3974 55.1841C41.9094 55.2961 42.2974 55.4761 42.5614 55.7241C42.8254 55.9641 42.9574 56.2921 42.9574 56.7081C42.9574 57.2441 42.7454 57.6681 42.3214 57.9801C41.8974 58.2841 41.3334 58.4361 40.6294 58.4361ZM49.3568 58.4361C48.9568 58.4361 48.5968 58.3601 48.2768 58.2081C47.9648 58.0481 47.7168 57.8321 47.5328 57.5601C47.3488 57.2881 47.2568 56.9841 47.2568 56.6481C47.2568 56.2241 47.3648 55.8881 47.5808 55.6401C47.8048 55.3921 48.1688 55.2161 48.6728 55.1121C49.1848 55.0001 49.8808 54.9441 50.7608 54.9441H51.1448V54.5721C51.1448 54.0761 51.0408 53.7201 50.8328 53.5041C50.6328 53.2801 50.3088 53.1681 49.8608 53.1681C49.5088 53.1681 49.1688 53.2201 48.8408 53.3241C48.5128 53.4201 48.1768 53.5801 47.8328 53.8041L47.4968 53.0961C47.8008 52.8801 48.1688 52.7081 48.6008 52.5801C49.0408 52.4521 49.4608 52.3881 49.8608 52.3881C50.6128 52.3881 51.1688 52.5721 51.5288 52.9401C51.8968 53.3081 52.0808 53.8801 52.0808 54.6561V58.3281H51.1688V57.3201C51.0168 57.6641 50.7808 57.9361 50.4608 58.1361C50.1488 58.3361 49.7808 58.4361 49.3568 58.4361ZM49.5128 57.7041C49.9928 57.7041 50.3848 57.5401 50.6888 57.2121C50.9928 56.8761 51.1448 56.4521 51.1448 55.9401V55.5801H50.7728C50.1248 55.5801 49.6128 55.6121 49.2368 55.6761C48.8688 55.7321 48.6088 55.8361 48.4568 55.9881C48.3128 56.1321 48.2408 56.3321 48.2408 56.5881C48.2408 56.9161 48.3528 57.1841 48.5768 57.3921C48.8088 57.6001 49.1208 57.7041 49.5128 57.7041ZM55.6721 58.4361C55.0801 58.4361 54.6321 58.2641 54.3281 57.9201C54.0321 57.5681 53.8841 57.0601 53.8841 56.3961V49.8681H54.8561V56.3241C54.8561 57.1801 55.1961 57.6081 55.8761 57.6081C56.0761 57.6081 56.2561 57.5841 56.4161 57.5361L56.3921 58.3521C56.1441 58.4081 55.9041 58.4361 55.6721 58.4361ZM59.6694 58.4361C58.9814 58.4361 58.4654 58.2561 58.1214 57.8961C57.7774 57.5281 57.6054 57.0001 57.6054 56.3121V53.2521H56.4654V52.4961H57.6054V50.7081H58.5774V52.4961H60.4254V53.2521H58.5774V56.2161C58.5774 56.6721 58.6734 57.0201 58.8654 57.2601C59.0574 57.4921 59.3694 57.6081 59.8014 57.6081C59.9294 57.6081 60.0574 57.5921 60.1854 57.5601C60.3134 57.5281 60.4294 57.4961 60.5334 57.4641L60.7014 58.2081C60.5974 58.2641 60.4454 58.3161 60.2454 58.3641C60.0454 58.4121 59.8534 58.4361 59.6694 58.4361ZM63.3607 58.4361C62.9607 58.4361 62.6007 58.3601 62.2807 58.2081C61.9687 58.0481 61.7207 57.8321 61.5367 57.5601C61.3527 57.2881 61.2607 56.9841 61.2607 56.6481C61.2607 56.2241 61.3687 55.8881 61.5847 55.6401C61.8087 55.3921 62.1727 55.2161 62.6767 55.1121C63.1887 55.0001 63.8847 54.9441 64.7647 54.9441H65.1487V54.5721C65.1487 54.0761 65.0447 53.7201 64.8367 53.5041C64.6367 53.2801 64.3127 53.1681 63.8647 53.1681C63.5127 53.1681 63.1727 53.2201 62.8447 53.3241C62.5167 53.4201 62.1807 53.5801 61.8367 53.8041L61.5007 53.0961C61.8047 52.8801 62.1727 52.7081 62.6047 52.5801C63.0447 52.4521 63.4647 52.3881 63.8647 52.3881C64.6167 52.3881 65.1727 52.5721 65.5327 52.9401C65.9007 53.3081 66.0847 53.8801 66.0847 54.6561V58.3281H65.1727V57.3201C65.0207 57.6641 64.7847 57.9361 64.4647 58.1361C64.1527 58.3361 63.7847 58.4361 63.3607 58.4361ZM63.5167 57.7041C63.9967 57.7041 64.3887 57.5401 64.6927 57.2121C64.9967 56.8761 65.1487 56.4521 65.1487 55.9401V55.5801H64.7767C64.1287 55.5801 63.6167 55.6121 63.2407 55.6761C62.8727 55.7321 62.6127 55.8361 62.4607 55.9881C62.3167 56.1321 62.2447 56.3321 62.2447 56.5881C62.2447 56.9161 62.3567 57.1841 62.5807 57.3921C62.8127 57.6001 63.1247 57.7041 63.5167 57.7041ZM73.442 58.4361C72.858 58.4361 72.354 58.3121 71.93 58.0641C71.506 57.8081 71.178 57.4521 70.946 56.9961C70.722 56.5321 70.61 55.9921 70.61 55.3761C70.61 54.4481 70.862 53.7201 71.366 53.1921C71.87 52.6561 72.562 52.3881 73.442 52.3881C73.802 52.3881 74.158 52.4521 74.51 52.5801C74.862 52.7081 75.154 52.8881 75.386 53.1201L75.05 53.8281C74.818 53.6041 74.562 53.4401 74.282 53.3361C74.01 53.2321 73.75 53.1801 73.502 53.1801C72.894 53.1801 72.426 53.3721 72.098 53.7561C71.77 54.1321 71.606 54.6761 71.606 55.3881C71.606 56.0841 71.77 56.6361 72.098 57.0441C72.426 57.4441 72.894 57.6441 73.502 57.6441C73.75 57.6441 74.01 57.5921 74.282 57.4881C74.562 57.3841 74.818 57.2161 75.05 56.9841L75.386 57.6921C75.154 57.9241 74.858 58.1081 74.498 58.2441C74.146 58.3721 73.794 58.4361 73.442 58.4361ZM78.3138 58.4361C77.9138 58.4361 77.5538 58.3601 77.2338 58.2081C76.9218 58.0481 76.6738 57.8321 76.4898 57.5601C76.3058 57.2881 76.2138 56.9841 76.2138 56.6481C76.2138 56.2241 76.3218 55.8881 76.5378 55.6401C76.7618 55.3921 77.1258 55.2161 77.6298 55.1121C78.1418 55.0001 78.8378 54.9441 79.7178 54.9441H80.1018V54.5721C80.1018 54.0761 79.9978 53.7201 79.7898 53.5041C79.5898 53.2801 79.2658 53.1681 78.8178 53.1681C78.4658 53.1681 78.1258 53.2201 77.7978 53.3241C77.4698 53.4201 77.1338 53.5801 76.7898 53.8041L76.4538 53.0961C76.7578 52.8801 77.1258 52.7081 77.5578 52.5801C77.9978 52.4521 78.4178 52.3881 78.8178 52.3881C79.5698 52.3881 80.1258 52.5721 80.4858 52.9401C80.8538 53.3081 81.0378 53.8801 81.0378 54.6561V58.3281H80.1258V57.3201C79.9738 57.6641 79.7378 57.9361 79.4178 58.1361C79.1058 58.3361 78.7378 58.4361 78.3138 58.4361ZM78.4698 57.7041C78.9498 57.7041 79.3418 57.5401 79.6458 57.2121C79.9498 56.8761 80.1018 56.4521 80.1018 55.9401V55.5801H79.7298C79.0818 55.5801 78.5698 55.6121 78.1938 55.6761C77.8258 55.7321 77.5658 55.8361 77.4138 55.9881C77.2698 56.1321 77.1978 56.3321 77.1978 56.5881C77.1978 56.9161 77.3098 57.1841 77.5338 57.3921C77.7658 57.6001 78.0778 57.7041 78.4698 57.7041ZM84.6291 58.4361C84.0371 58.4361 83.5891 58.2641 83.2851 57.9201C82.9891 57.5681 82.8411 57.0601 82.8411 56.3961V49.8681H83.8131V56.3241C83.8131 57.1801 84.1531 57.6081 84.8331 57.6081C85.0331 57.6081 85.2131 57.5841 85.3731 57.5361L85.3491 58.3521C85.1011 58.4081 84.8611 58.4361 84.6291 58.4361ZM86.2719 51.0441V49.9521H87.4719V51.0441H86.2719ZM86.3919 58.3281V52.4961H87.3639V58.3281H86.3919ZM89.4929 58.3281V53.2521H88.3409V52.4961H89.4929V52.2921C89.4929 51.5161 89.6849 50.9281 90.0689 50.5281C90.4609 50.1281 91.0609 49.9041 91.8689 49.8561L92.3129 49.8321L92.3729 50.5881L91.8689 50.6121C91.3729 50.6441 91.0129 50.7921 90.7889 51.0561C90.5729 51.3121 90.4649 51.6841 90.4649 52.1721V52.4961H94.0649V58.3281H93.0929V53.2521H90.4649V58.3281H89.4929ZM92.9849 51.0441V49.9521H94.1729V51.0441H92.9849ZM98.3561 58.4361C97.7721 58.4361 97.2681 58.3121 96.8441 58.0641C96.4201 57.8081 96.0921 57.4521 95.8601 56.9961C95.6361 56.5321 95.5241 55.9921 95.5241 55.3761C95.5241 54.4481 95.7761 53.7201 96.2801 53.1921C96.7841 52.6561 97.4761 52.3881 98.3561 52.3881C98.7161 52.3881 99.0721 52.4521 99.4241 52.5801C99.7761 52.7081 100.068 52.8881 100.3 53.1201L99.9641 53.8281C99.7321 53.6041 99.4761 53.4401 99.1961 53.3361C98.9241 53.2321 98.6641 53.1801 98.4161 53.1801C97.8081 53.1801 97.3401 53.3721 97.0121 53.7561C96.6841 54.1321 96.5201 54.6761 96.5201 55.3881C96.5201 56.0841 96.6841 56.6361 97.0121 57.0441C97.3401 57.4441 97.8081 57.6441 98.4161 57.6441C98.6641 57.6441 98.9241 57.5921 99.1961 57.4881C99.4761 57.3841 99.7321 57.2161 99.9641 56.9841L100.3 57.6921C100.068 57.9241 99.7721 58.1081 99.4121 58.2441C99.0601 58.3721 98.7081 58.4361 98.3561 58.4361ZM103.228 58.4361C102.828 58.4361 102.468 58.3601 102.148 58.2081C101.836 58.0481 101.588 57.8321 101.404 57.5601C101.22 57.2881 101.128 56.9841 101.128 56.6481C101.128 56.2241 101.236 55.8881 101.452 55.6401C101.676 55.3921 102.04 55.2161 102.544 55.1121C103.056 55.0001 103.752 54.9441 104.632 54.9441H105.016V54.5721C105.016 54.0761 104.912 53.7201 104.704 53.5041C104.504 53.2801 104.18 53.1681 103.732 53.1681C103.38 53.1681 103.04 53.2201 102.712 53.3241C102.384 53.4201 102.048 53.5801 101.704 53.8041L101.368 53.0961C101.672 52.8801 102.04 52.7081 102.472 52.5801C102.912 52.4521 103.332 52.3881 103.732 52.3881C104.484 52.3881 105.04 52.5721 105.4 52.9401C105.768 53.3081 105.952 53.8801 105.952 54.6561V58.3281H105.04V57.3201C104.888 57.6641 104.652 57.9361 104.332 58.1361C104.02 58.3361 103.652 58.4361 103.228 58.4361ZM103.384 57.7041C103.864 57.7041 104.256 57.5401 104.56 57.2121C104.864 56.8761 105.016 56.4521 105.016 55.9401V55.5801H104.644C103.996 55.5801 103.484 55.6121 103.108 55.6761C102.74 55.7321 102.48 55.8361 102.328 55.9881C102.184 56.1321 102.112 56.3321 102.112 56.5881C102.112 56.9161 102.224 57.1841 102.448 57.3921C102.68 57.6001 102.992 57.7041 103.384 57.7041ZM110.227 58.4361C109.643 58.4361 109.139 58.3121 108.715 58.0641C108.291 57.8081 107.963 57.4521 107.731 56.9961C107.507 56.5321 107.395 55.9921 107.395 55.3761C107.395 54.4481 107.647 53.7201 108.151 53.1921C108.655 52.6561 109.347 52.3881 110.227 52.3881C110.587 52.3881 110.943 52.4521 111.295 52.5801C111.647 52.7081 111.939 52.8881 112.171 53.1201L111.835 53.8281C111.603 53.6041 111.347 53.4401 111.067 53.3361C110.795 53.2321 110.535 53.1801 110.287 53.1801C109.679 53.1801 109.211 53.3721 108.883 53.7561C108.555 54.1321 108.391 54.6761 108.391 55.3881C108.391 56.0841 108.555 56.6361 108.883 57.0441C109.211 57.4441 109.679 57.6441 110.287 57.6441C110.535 57.6441 110.795 57.5921 111.067 57.4881C111.347 57.3841 111.603 57.2161 111.835 56.9841L112.171 57.6921C111.939 57.9241 111.643 58.1081 111.283 58.2441C110.931 58.3721 110.579 58.4361 110.227 58.4361ZM113.19 51.0441V49.9521H114.39V51.0441H113.19ZM113.31 58.3281V52.4961H114.282V58.3281H113.31ZM118.523 58.4361C117.955 58.4361 117.463 58.3121 117.047 58.0641C116.631 57.8161 116.307 57.4681 116.075 57.0201C115.851 56.5641 115.739 56.0281 115.739 55.4121C115.739 54.7961 115.851 54.2641 116.075 53.8161C116.307 53.3601 116.631 53.0081 117.047 52.7601C117.463 52.5121 117.955 52.3881 118.523 52.3881C119.083 52.3881 119.571 52.5121 119.987 52.7601C120.411 53.0081 120.735 53.3601 120.959 53.8161C121.191 54.2641 121.307 54.7961 121.307 55.4121C121.307 56.0281 121.191 56.5641 120.959 57.0201C120.735 57.4681 120.411 57.8161 119.987 58.0641C119.571 58.3121 119.083 58.4361 118.523 58.4361ZM118.523 57.6561C119.067 57.6561 119.503 57.4641 119.831 57.0801C120.159 56.6881 120.323 56.1321 120.323 55.4121C120.323 54.6841 120.159 54.1281 119.831 53.7441C119.503 53.3601 119.067 53.1681 118.523 53.1681C117.971 53.1681 117.531 53.3601 117.203 53.7441C116.883 54.1281 116.723 54.6841 116.723 55.4121C116.723 56.1321 116.883 56.6881 117.203 57.0801C117.531 57.4641 117.971 57.6561 118.523 57.6561ZM118.175 51.7161L119.411 49.2921H120.455L118.871 51.7161H118.175ZM122.767 58.3281V52.4961H123.715V53.4921C123.907 53.1241 124.179 52.8481 124.531 52.6641C124.883 52.4801 125.279 52.3881 125.719 52.3881C127.103 52.3881 127.795 53.1561 127.795 54.6921V58.3281H126.823V54.7521C126.823 54.2081 126.715 53.8121 126.499 53.5641C126.291 53.3081 125.955 53.1801 125.491 53.1801C124.955 53.1801 124.527 53.3481 124.207 53.6841C123.895 54.0121 123.739 54.4521 123.739 55.0041V58.3281H122.767ZM13.8393 75.4361C13.2713 75.4361 12.7793 75.3121 12.3633 75.0641C11.9473 74.8161 11.6233 74.4681 11.3913 74.0201C11.1673 73.5641 11.0553 73.0281 11.0553 72.4121C11.0553 71.7961 11.1673 71.2641 11.3913 70.8161C11.6233 70.3601 11.9473 70.0081 12.3633 69.7601C12.7793 69.5121 13.2713 69.3881 13.8393 69.3881C14.3993 69.3881 14.8873 69.5121 15.3033 69.7601C15.7273 70.0081 16.0513 70.3601 16.2753 70.8161C16.5073 71.2641 16.6233 71.7961 16.6233 72.4121C16.6233 73.0281 16.5073 73.5641 16.2753 74.0201C16.0513 74.4681 15.7273 74.8161 15.3033 75.0641C14.8873 75.3121 14.3993 75.4361 13.8393 75.4361ZM13.8393 74.6561C14.3833 74.6561 14.8193 74.4641 15.1473 74.0801C15.4753 73.6881 15.6393 73.1321 15.6393 72.4121C15.6393 71.6841 15.4753 71.1281 15.1473 70.7441C14.8193 70.3601 14.3833 70.1681 13.8393 70.1681C13.2873 70.1681 12.8473 70.3601 12.5193 70.7441C12.1993 71.1281 12.0393 71.6841 12.0393 72.4121C12.0393 73.1321 12.1993 73.6881 12.5193 74.0801C12.8473 74.4641 13.2873 74.6561 13.8393 74.6561ZM20.3647 75.4361C19.6767 75.4361 19.1607 75.2561 18.8167 74.8961C18.4727 74.5281 18.3007 74.0001 18.3007 73.3121V70.2521H17.1607V69.4961H18.3007V67.7081H19.2727V69.4961H21.1207V70.2521H19.2727V73.2161C19.2727 73.6721 19.3687 74.0201 19.5607 74.2601C19.7527 74.4921 20.0647 74.6081 20.4967 74.6081C20.6247 74.6081 20.7527 74.5921 20.8807 74.5601C21.0087 74.5281 21.1247 74.4961 21.2287 74.4641L21.3967 75.2081C21.2927 75.2641 21.1407 75.3161 20.9407 75.3641C20.7407 75.4121 20.5487 75.4361 20.3647 75.4361ZM24.5854 75.4361C24.0174 75.4361 23.5254 75.3121 23.1094 75.0641C22.6934 74.8161 22.3694 74.4681 22.1374 74.0201C21.9134 73.5641 21.8014 73.0281 21.8014 72.4121C21.8014 71.7961 21.9134 71.2641 22.1374 70.8161C22.3694 70.3601 22.6934 70.0081 23.1094 69.7601C23.5254 69.5121 24.0174 69.3881 24.5854 69.3881C25.1454 69.3881 25.6334 69.5121 26.0494 69.7601C26.4734 70.0081 26.7974 70.3601 27.0214 70.8161C27.2534 71.2641 27.3694 71.7961 27.3694 72.4121C27.3694 73.0281 27.2534 73.5641 27.0214 74.0201C26.7974 74.4681 26.4734 74.8161 26.0494 75.0641C25.6334 75.3121 25.1454 75.4361 24.5854 75.4361ZM24.5854 74.6561C25.1294 74.6561 25.5654 74.4641 25.8934 74.0801C26.2214 73.6881 26.3854 73.1321 26.3854 72.4121C26.3854 71.6841 26.2214 71.1281 25.8934 70.7441C25.5654 70.3601 25.1294 70.1681 24.5854 70.1681C24.0334 70.1681 23.5934 70.3601 23.2654 70.7441C22.9454 71.1281 22.7854 71.6841 22.7854 72.4121C22.7854 73.1321 22.9454 73.6881 23.2654 74.0801C23.5934 74.4641 24.0334 74.6561 24.5854 74.6561ZM28.8294 75.3281V69.4961H29.7774V70.5401C30.0894 69.8361 30.7294 69.4481 31.6974 69.3761L32.0454 69.3401L32.1174 70.1801L31.5054 70.2521C30.9534 70.3001 30.5334 70.4761 30.2454 70.7801C29.9574 71.0761 29.8134 71.4841 29.8134 72.0041V75.3281H28.8294ZM35.6399 77.5961C35.1359 77.5961 34.6599 77.5281 34.2119 77.3921C33.7719 77.2641 33.3799 77.0681 33.0359 76.8041L33.3599 76.0961C33.7199 76.3521 34.0759 76.5361 34.4279 76.6481C34.7879 76.7601 35.1759 76.8161 35.5919 76.8161C36.7439 76.8161 37.3199 76.2241 37.3199 75.0401V74.0081C37.1519 74.3761 36.8879 74.6681 36.5279 74.8841C36.1759 75.0921 35.7719 75.1961 35.3159 75.1961C34.7799 75.1961 34.3159 75.0721 33.9239 74.8241C33.5319 74.5761 33.2279 74.2361 33.0119 73.8041C32.8039 73.3641 32.6999 72.8561 32.6999 72.2801C32.6999 71.7041 32.8039 71.2001 33.0119 70.7681C33.2279 70.3281 33.5319 69.9881 33.9239 69.7481C34.3159 69.5081 34.7799 69.3881 35.3159 69.3881C35.7719 69.3881 36.1759 69.4921 36.5279 69.7001C36.8879 69.9081 37.1519 70.1921 37.3199 70.5521V69.4961H38.2679V74.9081C38.2679 75.8041 38.0439 76.4761 37.5959 76.9241C37.1559 77.3721 36.5039 77.5961 35.6399 77.5961ZM35.4959 74.4041C36.0559 74.4041 36.4999 74.2121 36.8279 73.8281C37.1559 73.4441 37.3199 72.9281 37.3199 72.2801C37.3199 71.6321 37.1559 71.1201 36.8279 70.7441C36.4999 70.3601 36.0559 70.1681 35.4959 70.1681C34.9439 70.1681 34.5039 70.3601 34.1759 70.7441C33.8479 71.1201 33.6839 71.6321 33.6839 72.2801C33.6839 72.9281 33.8479 73.4441 34.1759 73.8281C34.5039 74.2121 34.9439 74.4041 35.4959 74.4041ZM41.9271 75.4361C41.5271 75.4361 41.1671 75.3601 40.8471 75.2081C40.5351 75.0481 40.2871 74.8321 40.1031 74.5601C39.9191 74.2881 39.8271 73.9841 39.8271 73.6481C39.8271 73.2241 39.9351 72.8881 40.1511 72.6401C40.3751 72.3921 40.7391 72.2161 41.2431 72.1121C41.7551 72.0001 42.4511 71.9441 43.3311 71.9441H43.7151V71.5721C43.7151 71.0761 43.6111 70.7201 43.4031 70.5041C43.2031 70.2801 42.8791 70.1681 42.4311 70.1681C42.0791 70.1681 41.7391 70.2201 41.4111 70.3241C41.0831 70.4201 40.7471 70.5801 40.4031 70.8041L40.0671 70.0961C40.3711 69.8801 40.7391 69.7081 41.1711 69.5801C41.6111 69.4521 42.0311 69.3881 42.4311 69.3881C43.1831 69.3881 43.7391 69.5721 44.0991 69.9401C44.4671 70.3081 44.6511 70.8801 44.6511 71.6561V75.3281H43.7391V74.3201C43.5871 74.6641 43.3511 74.9361 43.0311 75.1361C42.7191 75.3361 42.3511 75.4361 41.9271 75.4361ZM42.0831 74.7041C42.5631 74.7041 42.9551 74.5401 43.2591 74.2121C43.5631 73.8761 43.7151 73.4521 43.7151 72.9401V72.5801H43.3431C42.6951 72.5801 42.1831 72.6121 41.8071 72.6761C41.4391 72.7321 41.1791 72.8361 41.0271 72.9881C40.8831 73.1321 40.8111 73.3321 40.8111 73.5881C40.8111 73.9161 40.9231 74.1841 41.1471 74.3921C41.3791 74.6001 41.6911 74.7041 42.0831 74.7041ZM48.6744 75.4361C48.1544 75.4361 47.6984 75.3121 47.3064 75.0641C46.9224 74.8161 46.6224 74.4681 46.4064 74.0201C46.1984 73.5641 46.0944 73.0281 46.0944 72.4121C46.0944 71.7881 46.1984 71.2521 46.4064 70.8041C46.6224 70.3481 46.9224 70.0001 47.3064 69.7601C47.6984 69.5121 48.1544 69.3881 48.6744 69.3881C49.1304 69.3881 49.5304 69.4881 49.8744 69.6881C50.2264 69.8881 50.4864 70.1641 50.6544 70.5161V66.8681H51.6264V75.3281H50.6784V74.2601C50.5104 74.6281 50.2504 74.9161 49.8984 75.1241C49.5464 75.3321 49.1384 75.4361 48.6744 75.4361ZM48.8784 74.6561C49.4224 74.6561 49.8584 74.4641 50.1864 74.0801C50.5144 73.6881 50.6784 73.1321 50.6784 72.4121C50.6784 71.6841 50.5144 71.1281 50.1864 70.7441C49.8584 70.3601 49.4224 70.1681 48.8784 70.1681C48.3264 70.1681 47.8864 70.3601 47.5584 70.7441C47.2384 71.1281 47.0784 71.6841 47.0784 72.4121C47.0784 73.1321 47.2384 73.6881 47.5584 74.0801C47.8864 74.4641 48.3264 74.6561 48.8784 74.6561ZM55.2865 75.4361C54.8865 75.4361 54.5265 75.3601 54.2065 75.2081C53.8945 75.0481 53.6465 74.8321 53.4625 74.5601C53.2785 74.2881 53.1865 73.9841 53.1865 73.6481C53.1865 73.2241 53.2945 72.8881 53.5105 72.6401C53.7345 72.3921 54.0985 72.2161 54.6025 72.1121C55.1145 72.0001 55.8105 71.9441 56.6905 71.9441H57.0745V71.5721C57.0745 71.0761 56.9705 70.7201 56.7625 70.5041C56.5625 70.2801 56.2385 70.1681 55.7905 70.1681C55.4385 70.1681 55.0985 70.2201 54.7705 70.3241C54.4425 70.4201 54.1065 70.5801 53.7625 70.8041L53.4265 70.0961C53.7305 69.8801 54.0985 69.7081 54.5305 69.5801C54.9705 69.4521 55.3905 69.3881 55.7905 69.3881C56.5425 69.3881 57.0985 69.5721 57.4585 69.9401C57.8265 70.3081 58.0105 70.8801 58.0105 71.6561V75.3281H57.0985V74.3201C56.9465 74.6641 56.7105 74.9361 56.3905 75.1361C56.0785 75.3361 55.7105 75.4361 55.2865 75.4361ZM55.4425 74.7041C55.9225 74.7041 56.3145 74.5401 56.6185 74.2121C56.9225 73.8761 57.0745 73.4521 57.0745 72.9401V72.5801H56.7025C56.0545 72.5801 55.5425 72.6121 55.1665 72.6761C54.7985 72.7321 54.5385 72.8361 54.3865 72.9881C54.2425 73.1321 54.1705 73.3321 54.1705 73.5881C54.1705 73.9161 54.2825 74.1841 54.5065 74.3921C54.7385 74.6001 55.0505 74.7041 55.4425 74.7041ZM65.5238 75.4361C64.6038 75.4361 63.8758 75.1681 63.3398 74.6321C62.8038 74.0881 62.5358 73.3521 62.5358 72.4241C62.5358 71.8241 62.6558 71.2961 62.8958 70.8401C63.1358 70.3761 63.4638 70.0201 63.8798 69.7721C64.3038 69.5161 64.7918 69.3881 65.3438 69.3881C66.1358 69.3881 66.7558 69.6441 67.2038 70.1561C67.6518 70.6601 67.8758 71.3561 67.8758 72.2441V72.6161H63.4838C63.5158 73.2801 63.7078 73.7881 64.0598 74.1401C64.4118 74.4841 64.8998 74.6561 65.5238 74.6561C65.8758 74.6561 66.2118 74.6041 66.5318 74.5001C66.8518 74.3881 67.1558 74.2081 67.4438 73.9601L67.7798 74.6441C67.5158 74.8921 67.1798 75.0881 66.7718 75.2321C66.3638 75.3681 65.9478 75.4361 65.5238 75.4361ZM65.3678 70.1081C64.8158 70.1081 64.3798 70.2801 64.0598 70.6241C63.7398 70.9681 63.5518 71.4201 63.4958 71.9801H67.0358C67.0118 71.3881 66.8558 70.9281 66.5678 70.6001C66.2878 70.2721 65.8878 70.1081 65.3678 70.1081ZM69.2825 75.3281V69.4961H70.2305V70.4921C70.4225 70.1241 70.6945 69.8481 71.0465 69.6641C71.3985 69.4801 71.7945 69.3881 72.2345 69.3881C73.6185 69.3881 74.3105 70.1561 74.3105 71.6921V75.3281H73.3385V71.7521C73.3385 71.2081 73.2305 70.8121 73.0145 70.5641C72.8065 70.3081 72.4705 70.1801 72.0065 70.1801C71.4705 70.1801 71.0425 70.3481 70.7225 70.6841C70.4105 71.0121 70.2545 71.4521 70.2545 72.0041V75.3281H69.2825ZM80.9729 75.4361C80.3809 75.4361 79.9329 75.2641 79.6289 74.9201C79.3329 74.5681 79.1849 74.0601 79.1849 73.3961V66.8681H80.1569V73.3241C80.1569 74.1801 80.4969 74.6081 81.1769 74.6081C81.3769 74.6081 81.5569 74.5841 81.7169 74.5361L81.6929 75.3521C81.4449 75.4081 81.2049 75.4361 80.9729 75.4361ZM84.5716 75.4361C84.1716 75.4361 83.8116 75.3601 83.4916 75.2081C83.1796 75.0481 82.9316 74.8321 82.7476 74.5601C82.5636 74.2881 82.4716 73.9841 82.4716 73.6481C82.4716 73.2241 82.5796 72.8881 82.7956 72.6401C83.0196 72.3921 83.3836 72.2161 83.8876 72.1121C84.3996 72.0001 85.0956 71.9441 85.9756 71.9441H86.3596V71.5721C86.3596 71.0761 86.2556 70.7201 86.0476 70.5041C85.8476 70.2801 85.5236 70.1681 85.0756 70.1681C84.7236 70.1681 84.3836 70.2201 84.0556 70.3241C83.7276 70.4201 83.3916 70.5801 83.0476 70.8041L82.7116 70.0961C83.0156 69.8801 83.3836 69.7081 83.8156 69.5801C84.2556 69.4521 84.6756 69.3881 85.0756 69.3881C85.8276 69.3881 86.3836 69.5721 86.7436 69.9401C87.1116 70.3081 87.2956 70.8801 87.2956 71.6561V75.3281H86.3836V74.3201C86.2316 74.6641 85.9956 74.9361 85.6756 75.1361C85.3636 75.3361 84.9956 75.4361 84.5716 75.4361ZM84.7276 74.7041C85.2076 74.7041 85.5996 74.5401 85.9036 74.2121C86.2076 73.8761 86.3596 73.4521 86.3596 72.9401V72.5801H85.9876C85.3396 72.5801 84.8276 72.6121 84.4516 72.6761C84.0836 72.7321 83.8236 72.8361 83.6716 72.9881C83.5276 73.1321 83.4556 73.3321 83.4556 73.5881C83.4556 73.9161 83.5676 74.1841 83.7916 74.3921C84.0236 74.6001 84.3356 74.7041 84.7276 74.7041ZM95.1329 75.4361C94.6689 75.4361 94.2609 75.3321 93.9089 75.1241C93.5649 74.9161 93.3049 74.6321 93.1289 74.2721V75.3281H92.1809V66.8681H93.1529V70.5041C93.3209 70.1601 93.5809 69.8881 93.9329 69.6881C94.2849 69.4881 94.6849 69.3881 95.1329 69.3881C95.6529 69.3881 96.1049 69.5121 96.4889 69.7601C96.8809 70.0001 97.1809 70.3481 97.3889 70.8041C97.6049 71.2521 97.7129 71.7881 97.7129 72.4121C97.7129 73.0281 97.6049 73.5641 97.3889 74.0201C97.1809 74.4681 96.8809 74.8161 96.4889 75.0641C96.1049 75.3121 95.6529 75.4361 95.1329 75.4361ZM94.9289 74.6561C95.4729 74.6561 95.9089 74.4641 96.2369 74.0801C96.5649 73.6881 96.7289 73.1321 96.7289 72.4121C96.7289 71.6841 96.5649 71.1281 96.2369 70.7441C95.9089 70.3601 95.4729 70.1681 94.9289 70.1681C94.3849 70.1681 93.9489 70.3601 93.6209 70.7441C93.2929 71.1281 93.1289 71.6841 93.1289 72.4121C93.1289 73.1321 93.2929 73.6881 93.6209 74.0801C93.9489 74.4641 94.3849 74.6561 94.9289 74.6561ZM101.013 75.4361C100.613 75.4361 100.253 75.3601 99.933 75.2081C99.621 75.0481 99.373 74.8321 99.189 74.5601C99.005 74.2881 98.913 73.9841 98.913 73.6481C98.913 73.2241 99.021 72.8881 99.237 72.6401C99.461 72.3921 99.825 72.2161 100.329 72.1121C100.841 72.0001 101.537 71.9441 102.417 71.9441H102.801V71.5721C102.801 71.0761 102.697 70.7201 102.489 70.5041C102.289 70.2801 101.965 70.1681 101.517 70.1681C101.165 70.1681 100.825 70.2201 100.497 70.3241C100.169 70.4201 99.833 70.5801 99.489 70.8041L99.153 70.0961C99.457 69.8801 99.825 69.7081 100.257 69.5801C100.697 69.4521 101.117 69.3881 101.517 69.3881C102.269 69.3881 102.825 69.5721 103.185 69.9401C103.553 70.3081 103.737 70.8801 103.737 71.6561V75.3281H102.825V74.3201C102.673 74.6641 102.437 74.9361 102.117 75.1361C101.805 75.3361 101.437 75.4361 101.013 75.4361ZM101.169 74.7041C101.649 74.7041 102.041 74.5401 102.345 74.2121C102.649 73.8761 102.801 73.4521 102.801 72.9401V72.5801H102.429C101.781 72.5801 101.269 72.6121 100.893 72.6761C100.525 72.7321 100.265 72.8361 100.113 72.9881C99.969 73.1321 99.897 73.3321 99.897 73.5881C99.897 73.9161 100.009 74.1841 100.233 74.3921C100.465 74.6001 100.777 74.7041 101.169 74.7041ZM105.54 75.3281V69.4961H106.488V70.4921C106.68 70.1241 106.952 69.8481 107.304 69.6641C107.656 69.4801 108.052 69.3881 108.492 69.3881C109.876 69.3881 110.568 70.1561 110.568 71.6921V75.3281H109.596V71.7521C109.596 71.2081 109.488 70.8121 109.272 70.5641C109.064 70.3081 108.728 70.1801 108.264 70.1801C107.728 70.1801 107.3 70.3481 106.98 70.6841C106.668 71.0121 106.512 71.4521 106.512 72.0041V75.3281H105.54ZM114.833 75.4361C114.249 75.4361 113.745 75.3121 113.321 75.0641C112.897 74.8081 112.569 74.4521 112.337 73.9961C112.113 73.5321 112.001 72.9921 112.001 72.3761C112.001 71.4481 112.253 70.7201 112.757 70.1921C113.261 69.6561 113.953 69.3881 114.833 69.3881C115.193 69.3881 115.549 69.4521 115.901 69.5801C116.253 69.7081 116.545 69.8881 116.777 70.1201L116.441 70.8281C116.209 70.6041 115.953 70.4401 115.673 70.3361C115.401 70.2321 115.141 70.1801 114.893 70.1801C114.285 70.1801 113.817 70.3721 113.489 70.7561C113.161 71.1321 112.997 71.6761 112.997 72.3881C112.997 73.0841 113.161 73.6361 113.489 74.0441C113.817 74.4441 114.285 74.6441 114.893 74.6441C115.141 74.6441 115.401 74.5921 115.673 74.4881C115.953 74.3841 116.209 74.2161 116.441 73.9841L116.777 74.6921C116.545 74.9241 116.249 75.1081 115.889 75.2441C115.537 75.3721 115.185 75.4361 114.833 75.4361ZM119.704 75.4361C119.304 75.4361 118.944 75.3601 118.624 75.2081C118.312 75.0481 118.064 74.8321 117.88 74.5601C117.696 74.2881 117.604 73.9841 117.604 73.6481C117.604 73.2241 117.712 72.8881 117.928 72.6401C118.152 72.3921 118.516 72.2161 119.02 72.1121C119.532 72.0001 120.228 71.9441 121.108 71.9441H121.492V71.5721C121.492 71.0761 121.388 70.7201 121.18 70.5041C120.98 70.2801 120.656 70.1681 120.208 70.1681C119.856 70.1681 119.516 70.2201 119.188 70.3241C118.86 70.4201 118.524 70.5801 118.18 70.8041L117.844 70.0961C118.148 69.8801 118.516 69.7081 118.948 69.5801C119.388 69.4521 119.808 69.3881 120.208 69.3881C120.96 69.3881 121.516 69.5721 121.876 69.9401C122.244 70.3081 122.428 70.8801 122.428 71.6561V75.3281H121.516V74.3201C121.364 74.6641 121.128 74.9361 120.808 75.1361C120.496 75.3361 120.128 75.4361 119.704 75.4361ZM119.86 74.7041C120.34 74.7041 120.732 74.5401 121.036 74.2121C121.34 73.8761 121.492 73.4521 121.492 72.9401V72.5801H121.12C120.472 72.5801 119.96 72.6121 119.584 72.6761C119.216 72.7321 118.956 72.8361 118.804 72.9881C118.66 73.1321 118.588 73.3321 118.588 73.5881C118.588 73.9161 118.7 74.1841 118.924 74.3921C119.156 74.6001 119.468 74.7041 119.86 74.7041ZM39.2152 92.4361C38.2952 92.4361 37.5672 92.1681 37.0312 91.6321C36.4952 91.0881 36.2272 90.3521 36.2272 89.4241C36.2272 88.8241 36.3472 88.2961 36.5872 87.8401C36.8272 87.3761 37.1552 87.0201 37.5712 86.7721C37.9952 86.5161 38.4832 86.3881 39.0352 86.3881C39.8272 86.3881 40.4472 86.6441 40.8952 87.1561C41.3432 87.6601 41.5672 88.3561 41.5672 89.2441V89.6161H37.1752C37.2072 90.2801 37.3992 90.7881 37.7512 91.1401C38.1032 91.4841 38.5912 91.6561 39.2152 91.6561C39.5672 91.6561 39.9032 91.6041 40.2232 91.5001C40.5432 91.3881 40.8472 91.2081 41.1352 90.9601L41.4712 91.6441C41.2072 91.8921 40.8712 92.0881 40.4632 92.2321C40.0552 92.3681 39.6392 92.4361 39.2152 92.4361ZM39.0592 87.1081C38.5072 87.1081 38.0712 87.2801 37.7512 87.6241C37.4312 87.9681 37.2432 88.4201 37.1872 88.9801H40.7272C40.7032 88.3881 40.5472 87.9281 40.2592 87.6001C39.9792 87.2721 39.5792 87.1081 39.0592 87.1081ZM45.4459 92.4361C44.8619 92.4361 44.3579 92.3121 43.9339 92.0641C43.5099 91.8081 43.1819 91.4521 42.9499 90.9961C42.7259 90.5321 42.6139 89.9921 42.6139 89.3761C42.6139 88.4481 42.8659 87.7201 43.3699 87.1921C43.8739 86.6561 44.5659 86.3881 45.4459 86.3881C45.8059 86.3881 46.1619 86.4521 46.5139 86.5801C46.8659 86.7081 47.1579 86.8881 47.3899 87.1201L47.0539 87.8281C46.8219 87.6041 46.5659 87.4401 46.2859 87.3361C46.0139 87.2321 45.7539 87.1801 45.5059 87.1801C44.8979 87.1801 44.4299 87.3721 44.1019 87.7561C43.7739 88.1321 43.6099 88.6761 43.6099 89.3881C43.6099 90.0841 43.7739 90.6361 44.1019 91.0441C44.4299 91.4441 44.8979 91.6441 45.5059 91.6441C45.7539 91.6441 46.0139 91.5921 46.2859 91.4881C46.5659 91.3841 46.8219 91.2161 47.0539 90.9841L47.3899 91.6921C47.1579 91.9241 46.8619 92.1081 46.5019 92.2441C46.1499 92.3721 45.7979 92.4361 45.4459 92.4361ZM50.5926 92.4361C49.1926 92.4361 48.4926 91.6641 48.4926 90.1201V86.4961H49.4646V90.1081C49.4646 90.6281 49.5686 91.0121 49.7766 91.2601C49.9926 91.5081 50.3286 91.6321 50.7846 91.6321C51.2806 91.6321 51.6846 91.4681 51.9966 91.1401C52.3086 90.8041 52.4646 90.3601 52.4646 89.8081V86.4961H53.4366V92.3281H52.4886V91.3441C52.3046 91.6961 52.0446 91.9681 51.7086 92.1601C51.3806 92.3441 51.0086 92.4361 50.5926 92.4361ZM57.0912 92.4361C56.6912 92.4361 56.3312 92.3601 56.0112 92.2081C55.6992 92.0481 55.4512 91.8321 55.2672 91.5601C55.0832 91.2881 54.9912 90.9841 54.9912 90.6481C54.9912 90.2241 55.0992 89.8881 55.3152 89.6401C55.5392 89.3921 55.9032 89.2161 56.4072 89.1121C56.9192 89.0001 57.6152 88.9441 58.4952 88.9441H58.8792V88.5721C58.8792 88.0761 58.7752 87.7201 58.5672 87.5041C58.3672 87.2801 58.0432 87.1681 57.5952 87.1681C57.2432 87.1681 56.9032 87.2201 56.5752 87.3241C56.2472 87.4201 55.9112 87.5801 55.5672 87.8041L55.2312 87.0961C55.5352 86.8801 55.9032 86.7081 56.3352 86.5801C56.7752 86.4521 57.1952 86.3881 57.5952 86.3881C58.3472 86.3881 58.9032 86.5721 59.2632 86.9401C59.6312 87.3081 59.8152 87.8801 59.8152 88.6561V92.3281H58.9032V91.3201C58.7512 91.6641 58.5152 91.9361 58.1952 92.1361C57.8832 92.3361 57.5152 92.4361 57.0912 92.4361ZM57.2472 91.7041C57.7272 91.7041 58.1192 91.5401 58.4232 91.2121C58.7272 90.8761 58.8792 90.4521 58.8792 89.9401V89.5801H58.5072C57.8592 89.5801 57.3472 89.6121 56.9712 89.6761C56.6032 89.7321 56.3432 89.8361 56.1912 89.9881C56.0472 90.1321 55.9752 90.3321 55.9752 90.5881C55.9752 90.9161 56.0872 91.1841 56.3112 91.3921C56.5432 91.6001 56.8552 91.7041 57.2472 91.7041ZM63.9584 92.4361C63.2704 92.4361 62.7544 92.2561 62.4104 91.8961C62.0664 91.5281 61.8944 91.0001 61.8944 90.3121V87.2521H60.7544V86.4961H61.8944V84.7081H62.8664V86.4961H64.7144V87.2521H62.8664V90.2161C62.8664 90.6721 62.9624 91.0201 63.1544 91.2601C63.3464 91.4921 63.6584 91.6081 64.0904 91.6081C64.2184 91.6081 64.3464 91.5921 64.4744 91.5601C64.6024 91.5281 64.7184 91.4961 64.8224 91.4641L64.9904 92.2081C64.8864 92.2641 64.7344 92.3161 64.5344 92.3641C64.3344 92.4121 64.1424 92.4361 63.9584 92.4361ZM68.1792 92.4361C67.6112 92.4361 67.1192 92.3121 66.7032 92.0641C66.2872 91.8161 65.9632 91.4681 65.7312 91.0201C65.5072 90.5641 65.3952 90.0281 65.3952 89.4121C65.3952 88.7961 65.5072 88.2641 65.7312 87.8161C65.9632 87.3601 66.2872 87.0081 66.7032 86.7601C67.1192 86.5121 67.6112 86.3881 68.1792 86.3881C68.7392 86.3881 69.2272 86.5121 69.6432 86.7601C70.0672 87.0081 70.3912 87.3601 70.6152 87.8161C70.8472 88.2641 70.9632 88.7961 70.9632 89.4121C70.9632 90.0281 70.8472 90.5641 70.6152 91.0201C70.3912 91.4681 70.0672 91.8161 69.6432 92.0641C69.2272 92.3121 68.7392 92.4361 68.1792 92.4361ZM68.1792 91.6561C68.7232 91.6561 69.1592 91.4641 69.4872 91.0801C69.8152 90.6881 69.9792 90.1321 69.9792 89.4121C69.9792 88.6841 69.8152 88.1281 69.4872 87.7441C69.1592 87.3601 68.7232 87.1681 68.1792 87.1681C67.6272 87.1681 67.1872 87.3601 66.8592 87.7441C66.5392 88.1281 66.3792 88.6841 66.3792 89.4121C66.3792 90.1321 66.5392 90.6881 66.8592 91.0801C67.1872 91.4641 67.6272 91.6561 68.1792 91.6561ZM72.4231 92.3281V86.4961H73.3711V87.5401C73.6831 86.8361 74.3231 86.4481 75.2911 86.3761L75.6391 86.3401L75.7111 87.1801L75.0991 87.2521C74.5471 87.3001 74.1271 87.4761 73.8391 87.7801C73.5511 88.0761 73.4071 88.4841 73.4071 89.0041V92.3281H72.4231ZM76.6039 85.0441V83.9521H77.8039V85.0441H76.6039ZM76.7239 92.3281V86.4961H77.6959V92.3281H76.7239ZM81.349 92.4361C80.949 92.4361 80.589 92.3601 80.269 92.2081C79.957 92.0481 79.709 91.8321 79.525 91.5601C79.341 91.2881 79.249 90.9841 79.249 90.6481C79.249 90.2241 79.357 89.8881 79.573 89.6401C79.797 89.3921 80.161 89.2161 80.665 89.1121C81.177 89.0001 81.873 88.9441 82.753 88.9441H83.137V88.5721C83.137 88.0761 83.033 87.7201 82.825 87.5041C82.625 87.2801 82.301 87.1681 81.853 87.1681C81.501 87.1681 81.161 87.2201 80.833 87.3241C80.505 87.4201 80.169 87.5801 79.825 87.8041L79.489 87.0961C79.793 86.8801 80.161 86.7081 80.593 86.5801C81.033 86.4521 81.453 86.3881 81.853 86.3881C82.605 86.3881 83.161 86.5721 83.521 86.9401C83.889 87.3081 84.073 87.8801 84.073 88.6561V92.3281H83.161V91.3201C83.009 91.6641 82.773 91.9361 82.453 92.1361C82.141 92.3361 81.773 92.4361 81.349 92.4361ZM81.505 91.7041C81.985 91.7041 82.377 91.5401 82.681 91.2121C82.985 90.8761 83.137 90.4521 83.137 89.9401V89.5801H82.765C82.117 89.5801 81.605 89.6121 81.229 89.6761C80.861 89.7321 80.601 89.8361 80.449 89.9881C80.305 90.1321 80.233 90.3321 80.233 90.5881C80.233 90.9161 80.345 91.1841 80.569 91.3921C80.801 91.6001 81.113 91.7041 81.505 91.7041ZM85.8763 92.3281V86.4961H86.8243V87.4921C87.0163 87.1241 87.2883 86.8481 87.6403 86.6641C87.9923 86.4801 88.3883 86.3881 88.8283 86.3881C90.2123 86.3881 90.9043 87.1561 90.9043 88.6921V92.3281H89.9323V88.7521C89.9323 88.2081 89.8243 87.8121 89.6083 87.5641C89.4003 87.3081 89.0643 87.1801 88.6003 87.1801C88.0643 87.1801 87.6363 87.3481 87.3163 87.6841C87.0043 88.0121 86.8483 88.4521 86.8483 89.0041V92.3281H85.8763ZM94.5326 92.4361C94.1326 92.4361 93.7726 92.3601 93.4526 92.2081C93.1406 92.0481 92.8926 91.8321 92.7086 91.5601C92.5246 91.2881 92.4326 90.9841 92.4326 90.6481C92.4326 90.2241 92.5406 89.8881 92.7566 89.6401C92.9806 89.3921 93.3446 89.2161 93.8486 89.1121C94.3606 89.0001 95.0566 88.9441 95.9366 88.9441H96.3206V88.5721C96.3206 88.0761 96.2166 87.7201 96.0086 87.5041C95.8086 87.2801 95.4846 87.1681 95.0366 87.1681C94.6846 87.1681 94.3446 87.2201 94.0166 87.3241C93.6886 87.4201 93.3526 87.5801 93.0086 87.8041L92.6726 87.0961C92.9766 86.8801 93.3446 86.7081 93.7766 86.5801C94.2166 86.4521 94.6366 86.3881 95.0366 86.3881C95.7886 86.3881 96.3446 86.5721 96.7046 86.9401C97.0726 87.3081 97.2566 87.8801 97.2566 88.6561V92.3281H96.3446V91.3201C96.1926 91.6641 95.9566 91.9361 95.6366 92.1361C95.3246 92.3361 94.9566 92.4361 94.5326 92.4361ZM94.6886 91.7041C95.1686 91.7041 95.5606 91.5401 95.8646 91.2121C96.1686 90.8761 96.3206 90.4521 96.3206 89.9401V89.5801H95.9486C95.3006 89.5801 94.7886 89.6121 94.4126 89.6761C94.0446 89.7321 93.7846 89.8361 93.6326 89.9881C93.4886 90.1321 93.4166 90.3321 93.4166 90.5881C93.4166 90.9161 93.5286 91.1841 93.7526 91.3921C93.9846 91.6001 94.2966 91.7041 94.6886 91.7041Z" fill="#121212"/>
</svg>
