<svg width="42" height="41" viewBox="0 0 42 41" fill="none" xmlns="http://www.w3.org/2000/svg">
<path d="M20.2063 0C16.0767 0 12.1635 1.21 8.84658 3.4716C8.84658 3.4716 8.59042 3.6388 8.1885 3.9424C8.14875 3.9732 8.109 3.9996 8.06925 4.0304C7.91467 4.1448 7.74683 4.2768 7.56575 4.422C7.53483 4.4484 7.4995 4.4748 7.46417 4.5012C7.46858 4.5012 7.46858 4.4968 7.473 4.4968C6.54992 5.2448 5.33092 6.3448 4.35483 7.6428H4.35925C1.537 11.1892 0 15.554 0 20.13C0 25.3088 1.96983 30.228 5.54733 33.9856C5.62683 34.034 5.70192 34.078 5.78142 34.122C5.8565 34.166 5.93158 34.2144 6.00667 34.254C6.09058 34.3024 6.1745 34.3464 6.26283 34.3904C6.33792 34.4344 6.41742 34.474 6.49692 34.5136C6.58083 34.5576 6.66917 34.5972 6.75308 34.6412C6.83258 34.6808 6.91208 34.7204 6.99158 34.76C7.0755 34.7996 7.16383 34.8392 7.25217 34.8788C7.33167 34.914 7.41117 34.9536 7.49508 34.9888C7.58342 35.024 7.67175 35.0592 7.76008 35.0944C7.844 35.1296 7.9235 35.1648 8.00742 35.1956C8.09575 35.2308 8.18408 35.2616 8.27242 35.2968C8.35633 35.3276 8.43583 35.3628 8.52417 35.3892C8.6125 35.42 8.70525 35.4508 8.79358 35.4816C8.8775 35.5124 8.96142 35.5388 9.04533 35.5652C9.13808 35.596 9.22642 35.618 9.31917 35.6444C9.4075 35.6708 9.49142 35.6972 9.57533 35.7192C9.66808 35.7456 9.76083 35.7676 9.85358 35.794C9.9375 35.816 10.0214 35.838 10.1098 35.86C10.2025 35.882 10.2997 35.904 10.3924 35.926C10.4763 35.9436 10.5647 35.9656 10.6486 35.9832C10.7413 36.0052 10.8385 36.0184 10.9357 36.036C11.0196 36.0536 11.1035 36.0712 11.1918 36.0844C11.289 36.102 11.3906 36.1152 11.4878 36.1284C11.5717 36.1416 11.6556 36.1548 11.7395 36.168C11.8411 36.1812 11.9427 36.1944 12.0487 36.2032C12.1326 36.212 12.2121 36.2252 12.2916 36.234C12.3976 36.2428 12.508 36.2516 12.6184 36.2604C12.6935 36.2648 12.773 36.2736 12.8481 36.278C12.9717 36.2868 13.0998 36.2912 13.2235 36.2956C13.2809 36.3 13.3427 36.3 13.4002 36.3044C13.5857 36.3088 13.7712 36.3132 13.9567 36.3132C16.0723 36.3132 18.1304 35.9128 20.0782 35.1252C22.2335 34.2496 24.1636 32.934 25.7536 31.2576C26.2836 30.6988 26.7738 30.1048 27.2243 29.4712C27.3347 29.3172 27.4407 29.1632 27.5423 29.0048C27.5732 28.9608 27.6042 28.9124 27.6351 28.864C27.7102 28.7496 27.7853 28.6308 27.8559 28.512C27.8824 28.4636 27.9133 28.4196 27.9443 28.3712C28.037 28.2128 28.1298 28.0544 28.2225 27.8916C28.2313 27.874 28.2402 27.852 28.2534 27.8344C28.3329 27.6892 28.4124 27.5396 28.4831 27.3944C28.5052 27.346 28.5317 27.2932 28.5582 27.2448C28.6244 27.1128 28.6863 26.9852 28.7481 26.8532C28.7658 26.8136 28.7878 26.774 28.8011 26.73C28.8762 26.5672 28.9468 26.4044 29.0131 26.2416C28.6244 26.796 28.1739 27.3196 27.6748 27.8036C25.6652 29.7396 23.0153 30.8044 20.2195 30.8044C17.4238 30.8044 14.7738 29.7396 12.7642 27.8036C10.7546 25.872 9.59742 23.2804 9.50025 20.5128C9.49583 20.4248 9.50025 20.3368 9.50025 20.2532V20.1344C9.50025 20.0068 9.50025 19.8836 9.50467 19.756H9.50025C9.51792 19.008 9.58417 18.2644 9.699 17.534C9.699 17.5296 9.699 17.5252 9.70342 17.5208C9.72992 17.3316 9.76525 17.1468 9.80058 16.962C9.80942 16.9224 9.81383 16.8872 9.82267 16.8476C9.84917 16.7024 9.88008 16.5572 9.91542 16.4164C9.93308 16.3416 9.94633 16.2668 9.964 16.192C9.98608 16.104 10.0082 16.016 10.0303 15.928C10.0612 15.8004 10.0965 15.6772 10.1318 15.5496C10.1539 15.4836 10.1716 15.4132 10.1893 15.3472C10.2334 15.2064 10.2776 15.0656 10.3218 14.9248C10.3394 14.872 10.3571 14.8192 10.3747 14.7664C10.4233 14.6168 10.4807 14.4628 10.5337 14.3132C10.547 14.2692 10.5647 14.2296 10.5823 14.1856C10.6398 14.0272 10.706 13.8688 10.7678 13.7148C10.7811 13.6796 10.7943 13.6488 10.812 13.6136C10.8782 13.4508 10.9533 13.288 11.024 13.1296C11.0373 13.1032 11.0505 13.0768 11.0593 13.0504C11.1388 12.8832 11.2139 12.7204 11.2978 12.5576L11.3288 12.496C11.4127 12.3288 11.501 12.1616 11.5938 11.9988C11.6026 11.9812 11.6114 11.9636 11.6247 11.946C11.7174 11.7788 11.8146 11.6116 11.9118 11.4488C11.9206 11.4356 11.925 11.4224 11.9383 11.4092C12.0398 11.242 12.1458 11.0748 12.2563 10.9076C12.2607 10.8988 12.2651 10.89 12.2695 10.8856C12.3799 10.714 12.4947 10.5468 12.614 10.3796C12.7244 10.2212 12.8392 10.0672 12.9585 9.9132C12.9982 9.8604 13.038 9.812 13.0733 9.7636C13.1528 9.6624 13.2323 9.5568 13.3163 9.46C13.3648 9.4028 13.4134 9.3456 13.462 9.284C13.5371 9.196 13.6122 9.1036 13.6872 9.0156C13.7402 8.954 13.7933 8.8968 13.8507 8.8396C13.9258 8.756 14.0008 8.6724 14.0803 8.5888C14.1377 8.5272 14.1908 8.47 14.2482 8.4128C14.3277 8.3336 14.4028 8.2544 14.4823 8.1752C14.5397 8.118 14.5971 8.0608 14.6589 8.0036C14.7384 7.9244 14.8223 7.8496 14.9018 7.7748C14.9592 7.7176 15.0211 7.6648 15.0785 7.612C15.1624 7.5372 15.2508 7.4624 15.3347 7.3876C15.3921 7.3348 15.4539 7.2864 15.5113 7.2336C15.6041 7.1588 15.6968 7.0796 15.7896 7.0048C15.8426 6.9608 15.9 6.9124 15.9574 6.8684C16.0634 6.7848 16.1738 6.7012 16.2843 6.6176C16.3284 6.5868 16.3726 6.5516 16.4168 6.5208C16.5713 6.4064 16.7303 6.2964 16.8849 6.1864C16.907 6.1732 16.9291 6.16 16.9468 6.1468C17.0837 6.0544 17.225 5.962 17.3663 5.874C17.4193 5.8388 17.4767 5.8036 17.5342 5.7728C17.6402 5.7068 17.7462 5.6408 17.8566 5.5748C17.9228 5.5352 17.9891 5.5 18.0553 5.4604C18.0818 5.4472 18.1083 5.4296 18.1348 5.4164C18.6251 5.1436 19.7248 4.576 21.0675 4.114C21.0763 4.1096 21.0896 4.1052 21.0984 4.1052C21.1602 4.0832 21.2221 4.0656 21.2839 4.0436C21.3502 4.0216 21.4164 3.9996 21.4827 3.982C21.5445 3.9644 21.6063 3.9424 21.6682 3.9248C21.7388 3.9072 21.8051 3.8852 21.8758 3.8676C21.9376 3.85 21.995 3.8324 22.0568 3.8192C22.1231 3.8016 22.1937 3.784 22.2644 3.7664C22.3262 3.7488 22.3837 3.7356 22.4455 3.718C22.5118 3.7004 22.578 3.6872 22.6442 3.6696C22.7061 3.6564 22.7723 3.6388 22.8342 3.6256C22.9048 3.608 22.9755 3.5948 23.0462 3.5816C23.108 3.5684 23.1698 3.5552 23.2273 3.5464C23.2979 3.5332 23.373 3.52 23.4437 3.5068C23.5055 3.4936 23.5629 3.4848 23.6248 3.476C23.6954 3.4672 23.7705 3.454 23.8456 3.4408C23.903 3.432 23.9648 3.4232 24.0222 3.4144C24.0973 3.4056 24.1724 3.3924 24.2475 3.3836C24.3049 3.3748 24.3667 3.366 24.4242 3.3616C24.4992 3.3528 24.5788 3.344 24.6538 3.3396C24.7113 3.3308 24.7687 3.3264 24.8261 3.322C24.9056 3.3132 24.9851 3.3088 25.0602 3.3044C25.1176 3.3 25.175 3.2956 25.2324 3.2912C25.3163 3.2868 25.3958 3.2824 25.4797 3.2736C25.5327 3.2692 25.5857 3.2692 25.6387 3.2648C25.7315 3.2604 25.8198 3.256 25.9126 3.256C25.9568 3.256 26.0009 3.2516 26.0451 3.2516C26.182 3.2472 26.3189 3.2472 26.4558 3.2472C26.6281 3.2472 26.8047 3.2516 26.977 3.256C27.0256 3.256 27.0742 3.2604 27.1227 3.2604C27.2597 3.2648 27.3966 3.2736 27.5335 3.2824C27.5733 3.2868 27.613 3.2868 27.6527 3.2912C27.825 3.3044 27.9973 3.3176 28.1695 3.3352C28.2048 3.3396 28.2446 3.344 28.2799 3.3484C28.4213 3.3616 28.5582 3.3792 28.6951 3.3968C28.7437 3.4012 28.7922 3.41 28.8408 3.4144C29.0042 3.4364 29.1632 3.4628 29.3222 3.4892C29.3311 3.4936 29.3399 3.4936 29.3532 3.4936C29.5254 3.5244 29.6932 3.5552 29.8611 3.5904C29.9052 3.5992 29.9538 3.608 29.998 3.6212C30.1305 3.652 30.263 3.6828 30.3955 3.7092C30.4353 3.7224 30.475 3.7268 30.5192 3.74C30.687 3.7796 30.8504 3.8236 31.0183 3.8676C31.0492 3.8764 31.0801 3.8852 31.111 3.894C31.2479 3.9336 31.3848 3.9732 31.5173 4.0172C31.5659 4.0304 31.6101 4.048 31.6587 4.0612C31.8044 4.1052 31.9502 4.158 32.0915 4.2064C32.1092 4.2152 32.1313 4.2196 32.1489 4.224C32.3079 4.2812 32.4669 4.3428 32.6259 4.4044C32.6701 4.422 32.7143 4.4396 32.7584 4.4572C32.8203 4.4792 32.8777 4.5012 32.9351 4.5276C29.3576 1.5796 24.9188 0 20.2063 0Z" fill="#160F41"/>
<path d="M20.8069 40.7087C24.9365 40.7087 28.8497 39.4987 32.1666 37.2371C32.1666 37.2371 32.4227 37.0699 32.8247 36.7663C32.8644 36.7355 32.9042 36.7047 32.9439 36.6783C33.0985 36.5639 33.2663 36.4319 33.4474 36.2867C33.4783 36.2603 33.5137 36.2339 33.549 36.2075C33.5446 36.2075 33.5446 36.2119 33.5402 36.2119C34.4632 35.4639 35.6822 34.3639 36.6583 33.0703H36.6539C39.4762 29.5239 41.0132 25.1591 41.0132 20.5831C41.0132 15.4043 39.0433 10.4851 35.4658 6.7275C35.3863 6.6791 35.3112 6.6351 35.2317 6.5911C35.1567 6.5471 35.0816 6.5031 35.0021 6.4591C34.9182 6.4107 34.8298 6.3667 34.7459 6.3227C34.6708 6.2787 34.5913 6.23909 34.5118 6.19949C34.4279 6.15549 34.3396 6.1159 34.2557 6.0719C34.1762 6.0323 34.0967 5.9927 34.0172 5.9531C33.9288 5.9135 33.8449 5.8739 33.7566 5.8343C33.6771 5.7991 33.5976 5.7595 33.5137 5.7243C33.4253 5.6891 33.337 5.65389 33.2487 5.61869C33.1648 5.58349 33.0852 5.5483 33.0013 5.5175C32.913 5.4823 32.8247 5.45149 32.7363 5.41629C32.6524 5.38549 32.5729 5.3503 32.4846 5.3239C32.3962 5.2931 32.3035 5.2623 32.2152 5.2315C32.1312 5.2007 32.0473 5.17429 31.9634 5.14789C31.8751 5.11709 31.7823 5.09509 31.6896 5.06869C31.6012 5.04229 31.5173 5.0159 31.4334 4.9939C31.3407 4.9675 31.2479 4.9455 31.1552 4.9235C31.0712 4.9015 30.9829 4.8795 30.899 4.8575C30.8062 4.8355 30.7091 4.8135 30.6163 4.7915C30.5324 4.7739 30.4441 4.7519 30.3602 4.7343C30.2674 4.7123 30.1702 4.6991 30.0731 4.6815C29.9892 4.6639 29.9052 4.6463 29.8169 4.6331C29.7197 4.6155 29.6182 4.6023 29.521 4.5891C29.4371 4.5759 29.3532 4.56269 29.2692 4.54949C29.1677 4.53629 29.0661 4.5231 28.9645 4.5143C28.8806 4.5055 28.8011 4.4923 28.7216 4.4835C28.6156 4.4747 28.5052 4.46589 28.3992 4.45709C28.3241 4.45269 28.2446 4.44389 28.1695 4.43949C28.0458 4.43069 27.9177 4.4263 27.7941 4.4219C27.7322 4.4175 27.6748 4.4131 27.6174 4.4131C27.4319 4.4087 27.2464 4.4043 27.0609 4.4043C24.9453 4.4043 22.8872 4.8047 20.9438 5.5923C18.7885 6.4679 16.8584 7.7835 15.2684 9.4599C14.7384 10.0187 14.2482 10.6127 13.7977 11.2463C13.6872 11.4003 13.5812 11.5543 13.4797 11.7127C13.4487 11.7567 13.4178 11.8051 13.3869 11.8535C13.3118 11.9679 13.2367 12.0867 13.1661 12.2055C13.1396 12.2539 13.1087 12.2979 13.0778 12.3463C12.985 12.5047 12.8922 12.6631 12.8039 12.8259C12.7951 12.8435 12.7862 12.8655 12.773 12.8831C12.6935 13.0283 12.6184 13.1779 12.5433 13.3231C12.5213 13.3715 12.4947 13.4243 12.4682 13.4727C12.402 13.6047 12.3402 13.7323 12.2827 13.8643C12.2651 13.9039 12.243 13.9435 12.2298 13.9875C12.1547 14.1503 12.084 14.3131 12.0178 14.4759C12.4064 13.9215 12.8569 13.3979 13.356 12.9139C15.3656 10.9779 18.0156 9.9131 20.8069 9.9131C23.6027 9.9131 26.2527 10.9779 28.2622 12.9139C30.2674 14.8455 31.429 17.4371 31.5217 20.2047C31.5262 20.2927 31.5217 20.3807 31.5217 20.4643V20.5831C31.5217 20.7107 31.5217 20.8339 31.5173 20.9615H31.5217C31.5041 21.7095 31.4378 22.4531 31.323 23.1835C31.323 23.1879 31.323 23.1923 31.3186 23.1967C31.2877 23.3859 31.2567 23.5707 31.2214 23.7555C31.2126 23.7951 31.2082 23.8303 31.1993 23.8699C31.1728 24.0151 31.1419 24.1603 31.1066 24.3011C31.0889 24.3759 31.0757 24.4507 31.058 24.5255C31.0359 24.6135 31.0138 24.7015 30.9918 24.7895C30.9608 24.9171 30.9255 25.0403 30.8902 25.1679C30.8681 25.2339 30.8504 25.3043 30.8328 25.3703C30.7886 25.5111 30.7444 25.6519 30.7002 25.7927C30.6826 25.8455 30.6649 25.8983 30.6472 25.9511C30.5987 26.1007 30.5457 26.2547 30.4883 26.4043C30.475 26.4483 30.4573 26.4879 30.4397 26.5319C30.3823 26.6903 30.316 26.8487 30.2542 27.0027C30.2409 27.0379 30.2277 27.0687 30.21 27.1039C30.1437 27.2667 30.0687 27.4295 29.998 27.5879C29.9848 27.6143 29.9715 27.6407 29.9627 27.6671C29.8832 27.8343 29.8037 27.9971 29.7242 28.1599L29.6932 28.2215C29.6093 28.3887 29.521 28.5559 29.4282 28.7187C29.4194 28.7363 29.4106 28.7539 29.3973 28.7715C29.3046 28.9387 29.2074 29.1059 29.1102 29.2687C29.1014 29.2819 29.097 29.2951 29.0882 29.3083C28.9866 29.4755 28.8806 29.6427 28.7702 29.8099C28.7657 29.8187 28.7613 29.8275 28.7569 29.8319C28.6465 30.0035 28.5317 30.1707 28.4124 30.3379C28.302 30.4963 28.1872 30.6503 28.0679 30.8043C28.0326 30.8571 27.9928 30.9055 27.9531 30.9539C27.8736 31.0551 27.7941 31.1607 27.7102 31.2575C27.6616 31.3191 27.613 31.3719 27.5644 31.4335C27.4893 31.5215 27.4098 31.6139 27.3392 31.7019C27.2862 31.7635 27.2332 31.8207 27.1802 31.8779C27.1051 31.9615 27.03 32.0451 26.9505 32.1287C26.8931 32.1903 26.8401 32.2475 26.7827 32.3047C26.7032 32.3839 26.6281 32.4631 26.5486 32.5423C26.4912 32.5995 26.4337 32.6567 26.3719 32.7139C26.2924 32.7931 26.2085 32.8679 26.129 32.9427C26.0672 32.9999 26.0097 33.0527 25.9523 33.1055C25.864 33.1803 25.7801 33.2551 25.6918 33.3299C25.6343 33.3827 25.5725 33.4311 25.5151 33.4839C25.4223 33.5587 25.3296 33.6379 25.2368 33.7127C25.1838 33.7567 25.1264 33.8051 25.069 33.8491C24.963 33.9327 24.8526 34.0163 24.7422 34.0999C24.698 34.1307 24.6538 34.1659 24.6097 34.1967C24.4551 34.3111 24.2961 34.4211 24.1415 34.5311C24.1194 34.5443 24.0973 34.5575 24.0797 34.5707C23.9427 34.6631 23.8014 34.7555 23.6601 34.8435C23.6071 34.8787 23.5497 34.9139 23.4922 34.9447C23.3818 35.0107 23.2802 35.0767 23.1698 35.1427C23.1036 35.1823 23.0373 35.2175 22.9711 35.2571C22.9446 35.2703 22.9181 35.2879 22.8916 35.3011C22.4013 35.5739 21.3016 36.1415 19.9589 36.6035C19.9501 36.6079 19.9368 36.6123 19.928 36.6123C19.8662 36.6343 19.8043 36.6519 19.7425 36.6739C19.6762 36.6959 19.61 36.7179 19.5437 36.7355C19.4819 36.7531 19.4201 36.7751 19.3627 36.7927C19.292 36.8103 19.2258 36.8323 19.1551 36.8499C19.0933 36.8675 19.0358 36.8851 18.974 36.8983C18.9077 36.9159 18.8371 36.9335 18.7664 36.9511C18.7046 36.9687 18.6428 36.9819 18.5853 36.9995C18.5191 37.0171 18.4528 37.0303 18.3866 37.0479C18.3203 37.0611 18.2585 37.0787 18.1967 37.0919C18.126 37.1095 18.0553 37.1227 17.9847 37.1359C17.9228 37.1491 17.861 37.1623 17.8036 37.1711C17.7329 37.1843 17.6578 37.1975 17.5872 37.2107C17.5253 37.2239 17.4679 37.2327 17.4061 37.2415C17.3354 37.2503 17.2603 37.2635 17.1852 37.2767C17.1278 37.2855 17.066 37.2943 17.0086 37.3031C16.9335 37.3119 16.8584 37.3207 16.7833 37.3339C16.7259 37.3427 16.6641 37.3515 16.6067 37.3559C16.5316 37.3647 16.4565 37.3735 16.3814 37.3779C16.324 37.3867 16.2666 37.3911 16.2048 37.3955C16.1253 37.4043 16.0457 37.4087 15.9707 37.4131C15.9132 37.4175 15.8558 37.4219 15.8028 37.4263C15.7189 37.4351 15.6394 37.4395 15.5555 37.4439C15.5025 37.4483 15.4495 37.4527 15.3965 37.4527C15.3038 37.4571 15.2154 37.4615 15.1227 37.4615C15.0785 37.4615 15.0343 37.4659 14.9902 37.4659C14.8533 37.4703 14.7163 37.4703 14.5794 37.4703C14.4072 37.4703 14.2305 37.4703 14.0583 37.4615C14.0097 37.4615 13.9611 37.4571 13.9125 37.4571C13.7756 37.4527 13.6387 37.4439 13.5018 37.4351C13.462 37.4307 13.4222 37.4307 13.3825 37.4263C13.2102 37.4131 13.038 37.3999 12.8657 37.3823C12.8304 37.3779 12.7907 37.3735 12.7553 37.3691C12.614 37.3559 12.4771 37.3383 12.3402 37.3207C12.2916 37.3163 12.243 37.3075 12.1944 37.3031C12.031 37.2811 11.872 37.2547 11.713 37.2283C11.7042 37.2239 11.6953 37.2239 11.6821 37.2239C11.5142 37.1931 11.342 37.1623 11.1742 37.1271C11.13 37.1183 11.0814 37.1051 11.0372 37.0963C10.9047 37.0655 10.7722 37.0391 10.6397 37.0083C10.6 36.9995 10.5603 36.9907 10.5205 36.9775C10.3527 36.9379 10.1893 36.8939 10.0214 36.8499C9.9905 36.8411 9.95958 36.8323 9.92867 36.8235C9.79175 36.7839 9.65483 36.7443 9.52233 36.7003C9.47375 36.6871 9.42958 36.6739 9.381 36.6563C9.23525 36.6079 9.0895 36.5595 8.94817 36.5111C8.9305 36.5023 8.90842 36.4979 8.89075 36.4935C8.73175 36.4363 8.57275 36.3747 8.41375 36.3131C8.36958 36.2955 8.32542 36.2779 8.28125 36.2603C8.21942 36.2383 8.162 36.2163 8.10458 36.1899C11.6512 39.1291 16.0899 40.7087 20.8069 40.7087Z" fill="#160F41"/>
</svg>
