<svg width="64" height="54" viewBox="0 0 64 54" fill="none" xmlns="http://www.w3.org/2000/svg">
<g clip-path="url(#clip0_159_201)">
<path d="M12.2429 44.0834L0 31.7579L12.2429 17.6719V25.1158H28.0479V27.7072H9.66509V24.5764L3.52512 31.6397L9.66509 37.8203V34.3688H24.1023V36.9602H12.2429V44.0834Z" fill="#D2006E"/>
<path d="M51.7404 53.3338V46.2138H37.25V43.6224H54.3182V47.0771L60.4694 40.8933L54.3182 33.8252V36.9608H45.1396V34.3694H51.7404V26.9287L63.9977 41.0115L51.7404 53.3338Z" fill="#D2006E"/>
<path d="M30.6784 34.3691H26.7344V36.9606H30.6784V34.3691Z" fill="#D2006E"/>
<path d="M34.6237 43.6221H30.6797V46.2135H34.6237V43.6221Z" fill="#D2006E"/>
<path d="M28.0495 43.6221H24.1055V46.2135H28.0495V43.6221Z" fill="#D2006E"/>
<path d="M21.4714 43.6221H17.5273V46.2135H21.4714V43.6221Z" fill="#D2006E"/>
<path d="M60.4877 32.9974C60.2745 32.9972 60.0646 32.9437 59.8769 32.8418C59.6892 32.7399 59.5296 32.5928 59.4124 32.4137C59.2952 32.2346 59.2241 32.029 59.2053 31.8154C59.1866 31.6018 59.2209 31.3869 59.3052 31.1899C60.4675 28.4638 61.0282 25.5168 60.9485 22.5519C60.8689 19.5871 60.1508 16.6748 58.8438 14.0157C57.5368 11.3567 55.6719 9.01413 53.3776 7.14938C51.0833 5.28464 48.4142 3.94207 45.5541 3.21416C42.694 2.48625 39.7109 2.39031 36.8104 2.93295C33.9098 3.4756 31.1608 4.64392 28.7526 6.35743C26.3445 8.07094 24.3345 10.2889 22.8611 12.8585C21.3876 15.4281 20.4859 18.2883 20.2179 21.242C20.1871 21.5844 20.0223 21.9004 19.7598 22.1206C19.4972 22.3408 19.1584 22.4472 18.8178 22.4163C18.4773 22.3853 18.1629 22.2197 17.9438 21.9557C17.7248 21.6918 17.619 21.3511 17.6498 21.0088C18.1734 15.2674 20.8127 9.93013 25.0497 6.04447C29.2866 2.15881 34.8151 0.00537684 40.5502 0.00683668C53.2232 0.00683668 63.5344 10.3726 63.5344 23.1143C63.5404 26.2442 62.9099 29.3423 61.6816 32.2184C61.5807 32.4517 61.4136 32.65 61.2013 32.7886C60.989 32.9271 60.7408 32.9997 60.4877 32.9974Z" fill="#160F41"/>
<path d="M41.1944 32.9953H38.5683C37.5295 32.994 36.5336 32.5786 35.7991 31.8402C35.0645 31.1017 34.6513 30.1006 34.6501 29.0563V27.7347C34.6501 27.391 34.7858 27.0614 35.0276 26.8185C35.2693 26.5755 35.5971 26.4389 35.9389 26.4389C36.2808 26.4389 36.6086 26.5755 36.8503 26.8185C37.092 27.0614 37.2278 27.391 37.2278 27.7347V29.0563C37.2283 29.4136 37.3696 29.7561 37.6209 30.0087C37.8722 30.2613 38.2129 30.4034 38.5683 30.4038H41.1944C41.5498 30.4034 41.8905 30.2613 42.1418 30.0087C42.3931 29.7561 42.5344 29.4136 42.5349 29.0563V26.9961C42.5348 26.7131 42.4463 26.4373 42.2818 26.2077C42.1173 25.9781 41.8851 25.8063 41.6181 25.7166L37.3277 24.2783C36.5472 24.0171 35.8683 23.5154 35.3874 22.8444C34.9065 22.1734 34.6479 21.3672 34.6484 20.5402V18.48C34.6497 17.4357 35.0629 16.4346 35.7975 15.6961C36.532 14.9577 37.5279 14.5423 38.5667 14.541H41.1944C42.2332 14.5423 43.2291 14.9577 43.9636 15.6961C44.6981 16.4346 45.1114 17.4357 45.1126 18.48V19.8033C45.1126 20.1469 44.9768 20.4765 44.7351 20.7195C44.4934 20.9625 44.1656 21.099 43.8237 21.099C43.4819 21.099 43.1541 20.9625 42.9124 20.7195C42.6706 20.4765 42.5349 20.1469 42.5349 19.8033V18.48C42.5344 18.1227 42.3931 17.7802 42.1418 17.5276C41.8905 17.275 41.5498 17.1329 41.1944 17.1325H38.5683C38.213 17.1333 37.8726 17.2756 37.6214 17.5281C37.3702 17.7806 37.2287 18.1229 37.2278 18.48V20.5402C37.2279 20.8232 37.3164 21.099 37.4809 21.3286C37.6454 21.5582 37.8776 21.73 38.1446 21.8197L42.4382 23.258C43.219 23.5188 43.8981 24.0204 44.3791 24.6915C44.8601 25.3626 45.1185 26.169 45.1175 26.9961V29.0563C45.1162 30.1014 44.7023 31.1033 43.9667 31.8419C43.2311 32.5804 42.234 32.9953 41.1944 32.9953Z" fill="#160F41"/>
<path d="M39.8824 17.1325C39.5406 17.1325 39.2127 16.996 38.971 16.753C38.7293 16.51 38.5935 16.1804 38.5935 15.8368V11.8719C38.5935 11.5282 38.7293 11.1987 38.971 10.9557C39.2127 10.7127 39.5406 10.5762 39.8824 10.5762C40.2242 10.5762 40.5521 10.7127 40.7938 10.9557C41.0355 11.1987 41.1713 11.5282 41.1713 11.8719V15.8368C41.1713 16.1804 41.0355 16.51 40.7938 16.753C40.5521 16.996 40.2242 17.1325 39.8824 17.1325Z" fill="#121212"/>
<path d="M39.8826 36.9606C39.5408 36.9606 39.213 36.8241 38.9713 36.5811C38.7295 36.3381 38.5938 36.0085 38.5938 35.6649V31.7C38.5938 31.3564 38.7295 31.0268 38.9713 30.7838C39.213 30.5408 39.5408 30.4043 39.8826 30.4043C40.2245 30.4043 40.5523 30.5408 40.794 30.7838C41.0357 31.0268 41.1715 31.3564 41.1715 31.7V35.6649C41.1715 36.0085 41.0357 36.3381 40.794 36.5811C40.5523 36.8241 40.2245 36.9606 39.8826 36.9606Z" fill="#121212"/>
<g opacity="0.1">
<path d="M18.2346 37.2588C27.533 37.2588 35.0708 29.6811 35.0708 20.3335C35.0708 10.9859 27.533 3.4082 18.2346 3.4082C8.93625 3.4082 1.39844 10.9859 1.39844 20.3335C1.39844 29.6811 8.93625 37.2588 18.2346 37.2588Z" fill="#D2006E"/>
</g>
</g>
<defs>
<clipPath id="clip0_159_201">
<rect width="64" height="53.3333" fill="white"/>
</clipPath>
</defs>
</svg>
